# Blender v2.92.0 OBJ File: 'forest.blend'
# www.blender.org
mtllib tent.mtl
v -0.693287 1.167467 -1.367175
v -0.574983 1.092262 1.367175
v -0.574983 1.092262 -1.367175
v -0.693288 1.167466 1.367175
v -0.650188 0.973957 1.367175
v -0.768492 1.049163 -1.367175
v -0.650188 0.973957 -1.367175
v -0.768492 1.049162 1.367175
v 0.070092 2.136952 1.695297
v -0.070092 1.996767 1.695297
v 0.070092 1.996767 1.695297
v -0.070092 2.136952 1.695297
v -0.070092 2.136952 -1.695297
v 0.070092 1.996768 -1.695297
v -0.070092 1.996768 -1.695297
v 0.070092 2.136952 -1.695297
v 0.650188 0.973957 1.367175
v 0.768492 1.049162 -1.367175
v 0.768492 1.049162 1.367175
v 0.650188 0.973957 -1.367175
v 0.693288 1.167467 -1.367175
v 0.574983 1.092262 1.367175
v 0.693287 1.167466 1.367175
v 0.574983 1.092262 -1.367175
v -1.507359 -0.374458 -1.367175
v -1.625663 -0.299253 -1.507360
v -1.507359 -0.374458 -1.507360
v -1.625663 -0.299254 -1.367175
v 0.088679 2.397578 -1.507359
v 0.206984 2.322373 -1.367175
v 0.206984 2.322373 -1.507359
v 0.088679 2.397578 -1.367175
v 0.233856 1.628889 -1.367175
v 0.083056 2.127423 -1.367175
v 0.220840 1.662233 -1.367175
v 0.067264 1.890955 -1.367175
v 0.145234 1.893374 -1.367175
v 0.070092 1.996768 -1.367175
v 0.000000 1.996768 -1.367175
v 0.070092 2.136952 -1.367175
v -0.070092 2.136952 -1.367175
v 0.000000 2.258077 -1.367175
v -0.206983 2.322373 -1.367175
v -0.088679 2.397578 -1.367175
v -0.083055 2.127423 -1.367175
v -0.070092 1.996768 -1.367175
v -0.145234 1.893374 -1.367175
v -0.220840 1.662233 -1.367175
v -0.233856 1.628889 -1.367175
v 0.000000 1.996768 -1.507359
v -0.070092 1.996768 -1.507359
v -0.083055 2.127423 -1.507359
v -0.070092 2.136952 -1.507359
v -0.206983 2.322373 -1.507359
v 0.070092 2.136952 -1.507359
v 0.000000 2.258077 -1.507359
v -0.088679 2.397578 -1.507359
v 0.083056 2.127423 -1.507359
v 0.070092 1.996768 -1.507359
v 1.625664 -0.299253 -1.507359
v 1.507360 -0.374458 -1.507359
v 0.088679 2.397578 1.367175
v 0.206983 2.322373 1.507360
v 0.206983 2.322373 1.367175
v 0.088679 2.397578 1.507360
v -1.625664 -0.299254 1.507359
v -1.507360 -0.374459 1.367175
v -1.507360 -0.374459 1.507359
v -1.625664 -0.299254 1.367175
v 1.625663 -0.299254 1.507360
v -0.000000 1.996767 1.507360
v 1.507359 -0.374459 1.507360
v 0.070092 1.996767 1.507360
v 0.083055 2.127422 1.507360
v 0.070092 2.136952 1.507360
v -0.070092 2.136952 1.507360
v -0.000000 2.258076 1.507360
v -0.206984 2.322373 1.507360
v -0.088679 2.397578 1.507360
v -0.083056 2.127422 1.507360
v -0.070092 1.996767 1.507360
v -1.238254 0.048870 1.367175
v -1.262923 0.022933 1.367175
v -1.440127 -0.143622 1.367175
v 1.625663 -0.299254 1.367175
v 1.507359 -0.374459 1.367175
v -0.088679 2.397578 1.367175
v -0.206984 2.322373 1.367175
v -0.083056 2.127422 1.367175
v 1.507360 -0.374458 -1.367175
v 1.625664 -0.299254 -1.367175
v 1.238254 0.048871 -1.367175
v 1.262923 0.022934 -1.367175
v 1.389469 -0.189005 -1.367175
v 1.440127 -0.143622 -1.367175
v 1.390153 -0.189407 -1.367175
v 0.233856 1.628888 1.367175
v 0.067264 1.890954 1.367175
v -0.000000 1.996767 1.367175
v 1.389469 -0.189005 1.367175
v 1.238254 0.048870 1.367175
v -1.238254 0.048871 -1.367175
v -0.233856 1.628888 1.367175
v -0.000000 2.258076 1.367175
v 0.083055 2.127422 1.367175
v 0.070092 1.996767 1.367175
v -0.070092 1.996767 1.367175
v -0.070092 2.136952 1.367175
v 0.070092 2.136952 1.367175
v -0.220840 1.662232 1.367175
v -0.145234 1.893373 1.367175
v 0.145234 1.893373 1.367175
v 0.220840 1.662232 1.367175
v -1.262923 0.022934 -1.367175
v -1.440127 -0.143622 -1.367175
v 1.262923 0.022933 1.367175
v 1.440127 -0.143622 1.367175
v 1.390152 -0.189407 1.367175
v 0.309577 1.434911 -1.367175
v 0.411094 1.212300 1.367175
v 0.411094 1.212301 -1.367175
v 0.309576 1.434911 1.367175
v 0.524993 0.995279 1.367175
v 0.524993 0.995279 -1.367175
v 0.650825 0.784700 1.367175
v 0.650826 0.784700 -1.367175
v 0.788096 0.581392 -1.367175
v 0.936264 0.386155 1.367175
v 0.936265 0.386155 -1.367175
v 0.788096 0.581392 1.367175
v 1.094748 0.199758 -1.367175
v 1.094748 0.199758 1.367175
v -0.524993 0.995279 1.367175
v -0.411094 1.212301 -1.367175
v -0.524993 0.995279 -1.367175
v -0.411094 1.212300 1.367175
v -0.650826 0.784700 1.367175
v -0.650825 0.784700 -1.367175
v -1.094748 0.199758 1.367175
v -0.936264 0.386155 -1.367175
v -1.094748 0.199758 -1.367175
v -0.936265 0.386155 1.367175
v -0.309576 1.434911 -1.367175
v -0.309577 1.434911 1.367175
v -0.788096 0.581392 1.367175
v -0.788096 0.581392 -1.367175
vt 0.940476 0.562323
vt 0.949289 0.562775
vt 0.940476 0.562775
vt 0.949289 0.562323
vt 0.940476 0.562775
vt 0.949289 0.562323
vt 0.949289 0.562775
vt 0.940476 0.562323
vt 0.944656 0.558780
vt 0.945108 0.559232
vt 0.944656 0.559232
vt 0.945108 0.558780
vt 0.944656 0.558780
vt 0.945108 0.559232
vt 0.944656 0.559232
vt 0.945108 0.558780
vt 0.949289 0.562775
vt 0.940476 0.562323
vt 0.949289 0.562323
vt 0.940476 0.562775
vt 0.949289 0.562323
vt 0.940476 0.562775
vt 0.940476 0.562323
vt 0.949289 0.562775
vt 0.949289 0.562775
vt 0.949740 0.562323
vt 0.949740 0.562775
vt 0.949289 0.562323
vt 0.940024 0.562323
vt 0.940476 0.562775
vt 0.940024 0.562775
vt 0.940476 0.562323
vt 0.942648 0.561905
vt 0.944129 0.560418
vt 0.943029 0.562147
vt 0.944615 0.558811
vt 0.944171 0.560310
vt 0.944666 0.559573
vt 0.944414 0.559565
vt 0.944656 0.559232
vt 0.944882 0.559232
vt 0.944656 0.558780
vt 0.944215 0.558183
vt 0.945108 0.558780
vt 0.944882 0.558390
vt 0.944597 0.557940
vt 0.945549 0.558183
vt 0.945168 0.557940
vt 0.945150 0.558811
vt 0.945108 0.559232
vt 0.945350 0.559565
vt 0.945594 0.560310
vt 0.945636 0.560418
vt 0.947117 0.561905
vt 0.946736 0.562147
vt 0.939643 0.566632
vt 0.944882 0.559232
vt 0.940024 0.566875
vt 0.944656 0.559232
vt 0.944615 0.558811
vt 0.944656 0.558780
vt 0.944215 0.558183
vt 0.945108 0.558780
vt 0.944882 0.558390
vt 0.944597 0.557940
vt 0.945549 0.558183
vt 0.945168 0.557940
vt 0.945150 0.558811
vt 0.945108 0.559232
vt 0.950122 0.566632
vt 0.949740 0.566875
vt 0.949289 0.562323
vt 0.949740 0.562775
vt 0.949289 0.562775
vt 0.949740 0.562323
vt 0.940024 0.562323
vt 0.940476 0.562775
vt 0.940024 0.562775
vt 0.940476 0.562323
vt 0.939643 0.566632
vt 0.944882 0.559232
vt 0.940024 0.566875
vt 0.944656 0.559232
vt 0.944615 0.558811
vt 0.944656 0.558780
vt 0.944215 0.558183
vt 0.945108 0.558780
vt 0.944882 0.558390
vt 0.944597 0.557940
vt 0.945549 0.558183
vt 0.945168 0.557940
vt 0.945150 0.558811
vt 0.945108 0.559232
vt 0.950122 0.566632
vt 0.949740 0.566875
vt 0.940892 0.565510
vt 0.942406 0.562286
vt 0.942787 0.562529
vt 0.940812 0.565594
vt 0.940024 0.566875
vt 0.940241 0.566131
vt 0.939643 0.566632
vt 0.949740 0.562775
vt 0.949289 0.562323
vt 0.949740 0.562323
vt 0.949289 0.562775
vt 0.940476 0.562323
vt 0.940024 0.562775
vt 0.940024 0.562323
vt 0.940476 0.562775
vt 0.940024 0.559926
vt 0.940476 0.559182
vt 0.940476 0.559926
vt 0.940024 0.559182
vt 0.940476 0.562775
vt 0.940024 0.562323
vt 0.940476 0.562323
vt 0.940024 0.562775
vt 0.949289 0.559926
vt 0.949740 0.559182
vt 0.949740 0.559926
vt 0.949289 0.559182
vt 0.949740 0.562323
vt 0.949289 0.562775
vt 0.949289 0.562323
vt 0.949740 0.562775
vt 0.940024 0.559182
vt 0.940476 0.559714
vt 0.940024 0.559714
vt 0.940476 0.559182
vt 0.940892 0.565510
vt 0.942406 0.562286
vt 0.942787 0.562529
vt 0.940812 0.565594
vt 0.940404 0.566277
vt 0.940241 0.566131
vt 0.939643 0.566632
vt 0.940402 0.566278
vt 0.940024 0.566875
vt 0.949289 0.568773
vt 0.949289 0.567864
vt 0.949289 0.569481
vt 0.949740 0.560425
vt 0.949740 0.569481
vt 0.949289 0.563879
vt 0.949289 0.564331
vt 0.949289 0.560425
vt 0.949289 0.561830
vt 0.949289 0.560829
vt 0.940476 0.563879
vt 0.940476 0.564331
vt 0.940476 0.561830
vt 0.940476 0.560829
vt 0.940476 0.560425
vt 0.940024 0.560425
vt 0.940024 0.569481
vt 0.940476 0.568773
vt 0.940476 0.567864
vt 0.940476 0.569481
vt 0.940024 0.560425
vt 0.940476 0.569481
vt 0.940024 0.569481
vt 0.940476 0.563879
vt 0.940476 0.560425
vt 0.940476 0.561830
vt 0.940476 0.567864
vt 0.940476 0.564331
vt 0.949289 0.563879
vt 0.949289 0.564331
vt 0.949289 0.561830
vt 0.949289 0.560425
vt 0.949740 0.569481
vt 0.949740 0.560425
vt 0.949289 0.567864
vt 0.949289 0.569481
vt 0.940024 0.559182
vt 0.940476 0.559926
vt 0.940024 0.559926
vt 0.940476 0.559182
vt 0.940024 0.569481
vt 0.940476 0.564331
vt 0.940476 0.569481
vt 0.940476 0.560213
vt 0.940024 0.560213
vt 0.940476 0.563879
vt 0.949289 0.564331
vt 0.949289 0.563879
vt 0.949289 0.569481
vt 0.949740 0.560213
vt 0.949289 0.560213
vt 0.949740 0.569481
vt 0.949289 0.559182
vt 0.949740 0.559714
vt 0.949289 0.559714
vt 0.949740 0.559182
vt 0.940024 0.560213
vt 0.940476 0.569481
vt 0.940024 0.569481
vt 0.940476 0.563879
vt 0.940476 0.560213
vt 0.940476 0.564331
vt 0.949289 0.563879
vt 0.949289 0.564331
vt 0.949289 0.560213
vt 0.949740 0.569481
vt 0.949740 0.560213
vt 0.949289 0.569481
vt 0.940024 0.558780
vt 0.939418 0.559232
vt 0.939418 0.558780
vt 0.940024 0.559232
vt 0.940024 0.559232
vt 0.939418 0.558780
vt 0.940024 0.558780
vt 0.939418 0.559232
vt 0.945108 0.561411
vt 0.944656 0.562016
vt 0.944656 0.561411
vt 0.944882 0.562016
vt 0.945108 0.562016
vt 0.949289 0.559182
vt 0.949740 0.559926
vt 0.949289 0.559926
vt 0.949740 0.559182
vt 0.950346 0.558780
vt 0.949740 0.559232
vt 0.949740 0.558780
vt 0.950346 0.559232
vt 0.944656 0.562016
vt 0.945108 0.561411
vt 0.945108 0.562016
vt 0.944656 0.561411
vt 0.940476 0.559714
vt 0.940024 0.559182
vt 0.940476 0.559182
vt 0.940024 0.559714
vt 0.944882 0.562468
vt 0.944656 0.571281
vt 0.944656 0.562468
vt 0.944882 0.571281
vt 0.945108 0.571281
vt 0.945108 0.562468
vt 0.949289 0.559232
vt 0.940476 0.558780
vt 0.949289 0.558780
vt 0.940476 0.559232
vt 0.949740 0.559714
vt 0.949289 0.559182
vt 0.949740 0.559182
vt 0.949289 0.559714
vt 0.950346 0.559232
vt 0.949740 0.558780
vt 0.950346 0.558780
vt 0.949740 0.559232
vt 0.944656 0.571281
vt 0.945108 0.562468
vt 0.945108 0.571281
vt 0.944656 0.562468
vt 0.944882 0.571733
vt 0.944656 0.572339
vt 0.944656 0.571733
vt 0.945108 0.572339
vt 0.945108 0.571733
vt 0.944656 0.572339
vt 0.945108 0.571733
vt 0.945108 0.572339
vt 0.944656 0.571733
vt 0.949289 0.558780
vt 0.940476 0.559232
vt 0.940476 0.558780
vt 0.949289 0.559232
vt 0.942648 0.561905
vt 0.944129 0.560418
vt 0.943029 0.562147
vt 0.944615 0.558811
vt 0.944171 0.560310
vt 0.944882 0.559232
vt 0.944414 0.559565
vt 0.944656 0.559232
vt 0.944656 0.558780
vt 0.944215 0.558183
vt 0.945108 0.558780
vt 0.944882 0.558390
vt 0.944597 0.557940
vt 0.945549 0.558183
vt 0.945168 0.557940
vt 0.945150 0.558811
vt 0.945108 0.559232
vt 0.945099 0.559573
vt 0.945350 0.559565
vt 0.945594 0.560310
vt 0.945636 0.560418
vt 0.947117 0.561905
vt 0.946736 0.562147
vt 0.947359 0.562286
vt 0.948873 0.565510
vt 0.946978 0.562529
vt 0.948953 0.565594
vt 0.949740 0.566875
vt 0.949524 0.566131
vt 0.950122 0.566632
vt 0.947359 0.562286
vt 0.948873 0.565510
vt 0.946978 0.562529
vt 0.948953 0.565594
vt 0.949360 0.566277
vt 0.949524 0.566131
vt 0.950122 0.566632
vt 0.949363 0.566278
vt 0.949740 0.566875
vt 0.337682 0.701317
vt 0.317018 0.701317
vt 0.337682 0.703155
vt 0.317018 0.703155
vt 0.337682 0.680472
vt 0.317018 0.682310
vt 0.317018 0.680472
vt 0.337682 0.682310
vt 0.337682 0.678160
vt 0.317018 0.678160
vt 0.337682 0.679990
vt 0.317018 0.679990
vt 0.337682 0.705319
vt 0.337682 0.703489
vt 0.317018 0.705319
vt 0.317018 0.703489
vt 0.337682 0.698678
vt 0.317018 0.696829
vt 0.337682 0.696829
vt 0.317018 0.698678
vt 0.337682 0.694529
vt 0.317018 0.694529
vt 0.337682 0.696381
vt 0.317018 0.696381
vt 0.940476 0.561134
vt 0.940476 0.561805
vt 0.940476 0.561019
vt 0.317018 0.699094
vt 0.337682 0.700938
vt 0.337682 0.699094
vt 0.317018 0.700938
vt 0.949289 0.561134
vt 0.949289 0.561019
vt 0.949289 0.561805
vt 0.337682 0.694058
vt 0.317018 0.692204
vt 0.337682 0.692204
vt 0.317018 0.694058
vt 0.337682 0.689361
vt 0.317018 0.687509
vt 0.337682 0.687509
vt 0.317018 0.689361
vt 0.337682 0.682806
vt 0.337682 0.684650
vt 0.317018 0.682806
vt 0.940476 0.568636
vt 0.940476 0.568752
vt 0.940476 0.567965
vt 0.317018 0.684650
vt 0.949289 0.568636
vt 0.949289 0.567965
vt 0.949289 0.568752
vt 0.317018 0.685154
vt 0.337682 0.687003
vt 0.317018 0.687003
vt 0.337682 0.685154
vt 0.337682 0.689861
vt 0.317018 0.689861
vt 0.337682 0.691715
vt 0.317018 0.691715
vt 0.317018 0.696381
vt 0.337682 0.694529
vt 0.337682 0.696381
vt 0.317018 0.694529
vt 0.317018 0.678160
vt 0.337682 0.679990
vt 0.317018 0.679990
vt 0.337682 0.678160
vt 0.317018 0.692204
vt 0.317018 0.694058
vt 0.337682 0.692204
vt 0.337682 0.694058
vt 0.317018 0.685154
vt 0.317018 0.687003
vt 0.337682 0.685154
vt 0.337682 0.687003
vt 0.317018 0.680472
vt 0.337682 0.682310
vt 0.317018 0.682310
vt 0.337682 0.680472
vt 0.317018 0.703489
vt 0.337682 0.705319
vt 0.317018 0.705319
vt 0.337682 0.703489
vt 0.337682 0.696829
vt 0.317018 0.698678
vt 0.317018 0.696829
vt 0.337682 0.698678
vt 0.949289 0.568752
vt 0.949289 0.567965
vt 0.949289 0.568636
vt 0.317018 0.684650
vt 0.317018 0.682806
vt 0.337682 0.682806
vt 0.337682 0.684650
vt 0.940476 0.568636
vt 0.940476 0.568752
vt 0.940476 0.567965
vt 0.337682 0.701317
vt 0.317018 0.703155
vt 0.317018 0.701317
vt 0.337682 0.703155
vt 0.317018 0.689861
vt 0.317018 0.691715
vt 0.337682 0.689861
vt 0.337682 0.691715
vt 0.317018 0.689361
vt 0.337682 0.687509
vt 0.337682 0.689361
vt 0.317018 0.687509
vt 0.949289 0.561805
vt 0.949289 0.561019
vt 0.949289 0.561134
vt 0.317018 0.700938
vt 0.317018 0.699094
vt 0.337682 0.699094
vt 0.337682 0.700938
vt 0.940476 0.561134
vt 0.940476 0.561805
vt 0.940476 0.561019
vn 0.5365 0.8439 0.0000
vn -0.5365 -0.8439 -0.0000
vn -0.0000 -0.0000 1.0000
vn 0.0000 0.0000 -1.0000
vn 0.5365 -0.8439 0.0000
vn -0.5365 0.8439 0.0000
vn -0.8439 -0.5365 0.0000
vn 0.8439 0.5365 0.0000
vn -0.5606 -0.3564 -0.7475
vn -0.8439 -0.5365 0.0005
vn -0.0994 -0.9536 0.2843
vn -0.8439 -0.5365 0.0001
vn 0.2880 -0.4526 0.8439
vn -0.6711 -0.6191 -0.4079
vn -0.8439 -0.5365 -0.0001
vn 0.1876 0.0002 -0.9822
vn -0.5480 -0.4067 -0.7309
vn 0.6838 -0.5041 0.5276
vn 0.8439 -0.5365 0.0000
vn -0.2447 -0.5967 0.7642
vn 0.5592 -0.2705 0.7837
vn -0.0642 -0.9497 0.3065
vn 0.6071 -0.7327 -0.3075
vn 0.8439 -0.5364 -0.0000
vn -0.4614 -0.2314 0.8565
vn -0.8439 0.5365 0.0000
vn -0.8155 0.5788 0.0000
vn -0.2166 0.6510 0.7275
vn 0.8382 0.5454 -0.0087
vn -0.0617 0.9981 0.0000
vn 0.8438 0.5366 0.0000
vn 1.0000 -0.0000 0.0000
vn -1.0000 0.0000 -0.0000
vn 0.0000 -1.0000 -0.0000
vn 0.0000 1.0000 0.0000
vn -0.9414 -0.3374 -0.0005
vn -0.9414 -0.3373 -0.0000
vn -0.9588 -0.2839 -0.0000
vn 0.6640 0.7477 0.0000
vn 0.7050 0.7092 0.0000
vn -0.6427 -0.7662 -0.0000
vn -0.6640 -0.7477 0.0000
vn -0.9665 -0.2568 -0.0000
vn 0.9211 0.3894 0.0000
vn 0.8980 0.4400 0.0000
vn -0.8723 -0.4890 0.0000
vn -0.8980 -0.4400 0.0000
vn 0.9315 0.3637 0.0000
vn -0.9211 -0.3894 -0.0003
vn -0.0000 0.0003 -1.0000
vn 0.8723 0.4890 0.0000
vn 0.8130 0.5823 0.0000
vn 0.7795 0.6264 0.0000
vn -0.8130 -0.5823 -0.0000
vn -0.7795 -0.6264 -0.0000
vn 0.7435 0.6687 0.0000
vn -0.7246 -0.6891 -0.0000
vn -0.7050 -0.7092 -0.0000
vn -0.7435 -0.6687 -0.0000
vn -0.6958 -0.6621 -0.2783
vn -0.8980 0.4400 -0.0000
vn -0.8723 0.4890 -0.0000
vn 0.8723 -0.4890 0.0000
vn 0.8980 -0.4400 0.0000
vn -0.6427 0.7662 0.0000
vn -0.6640 0.7477 -0.0000
vn 0.6427 -0.7662 -0.0000
vn 0.6640 -0.7477 -0.0000
vn 0.7435 -0.6687 0.0000
vn 0.7795 -0.6264 0.0000
vn -0.7050 0.7092 -0.0000
vn -0.7050 0.7092 -0.0001
vn 0.7050 -0.7092 -0.0000
vn -0.9588 0.2839 -0.0000
vn -0.9665 0.2568 -0.0000
vn -0.9211 0.3894 -0.0000
vn 0.9211 -0.3894 -0.0000
vn -0.7435 0.6687 -0.0004
vn -0.7246 0.6891 0.0000
vn -0.7435 0.6687 -0.0000
vn 0.7246 -0.6891 0.0000
vn -0.9414 0.3374 0.0000
vn 0.9588 -0.2839 -0.0000
vn 0.9414 -0.3374 0.0000
vn 0.8130 -0.5823 0.0000
vn -0.8130 0.5823 0.0000
vn -0.7795 0.6264 0.0000
vn -0.9211 0.3893 -0.0001
vn -0.9414 0.3373 0.0002
vn 0.5972 0.2347 -0.7670
vn 0.9413 -0.3375 -0.0003
vn 0.9211 -0.3894 -0.0003
usemtl Material.007
s 1
f 1/1/1 2/2/1 3/3/1
f 2/2/1 1/1/1 4/4/1
f 5/5/2 6/6/2 7/7/2
f 6/6/2 5/5/2 8/8/2
f 9/9/3 10/10/3 11/11/3
f 10/10/3 9/9/3 12/12/3
f 13/13/4 14/14/4 15/15/4
f 14/14/4 13/13/4 16/16/4
f 17/17/5 18/18/5 19/19/5
f 18/18/5 17/17/5 20/20/5
f 21/21/6 22/22/6 23/23/6
f 22/22/6 21/21/6 24/24/6
f 25/25/2 26/26/2 27/27/2
f 26/26/2 25/25/2 28/28/2
f 29/29/1 30/30/1 31/31/1
f 30/30/1 29/29/1 32/32/1
f 21/33/3 33/34/3 24/35/3
f 33/34/3 21/33/3 34/36/3
f 33/34/3 34/36/3 35/37/3
f 35/37/3 36/38/3 33/34/3
f 36/38/3 35/37/3 37/39/3
f 35/37/3 34/36/3 37/39/3
f 36/38/3 37/39/3 38/40/3
f 38/40/3 37/39/3 34/36/3
f 38/40/3 39/41/3 36/38/3
f 38/40/3 34/36/3 40/42/3
f 40/42/3 34/36/3 30/43/3
f 40/42/3 30/43/3 41/44/3
f 41/44/3 30/43/3 42/45/3
f 42/45/3 30/43/3 32/46/3
f 43/47/3 41/44/3 42/45/3
f 43/47/3 42/45/3 44/48/3
f 45/49/3 41/44/3 43/47/3
f 45/49/3 46/50/3 41/44/3
f 47/51/3 39/41/3 46/50/3
f 47/51/3 46/50/3 45/49/3
f 48/52/3 39/41/3 47/51/3
f 45/49/3 48/52/3 47/51/3
f 39/41/3 48/52/3 49/53/3
f 45/49/3 49/53/3 48/52/3
f 1/54/3 49/53/3 45/49/3
f 49/53/3 1/54/3 3/55/3
f 26/56/4 50/57/4 27/58/4
f 50/57/4 26/56/4 51/59/4
f 52/60/4 51/59/4 26/56/4
f 51/59/4 52/60/4 53/61/4
f 53/61/4 52/60/4 54/62/4
f 53/61/4 54/62/4 55/63/4
f 55/63/4 54/62/4 56/64/4
f 56/64/4 54/62/4 57/65/4
f 31/66/4 55/63/4 56/64/4
f 31/66/4 56/64/4 29/67/4
f 58/68/4 55/63/4 31/66/4
f 58/68/4 59/69/4 55/63/4
f 59/69/4 58/68/4 60/70/4
f 60/70/4 50/57/4 59/69/4
f 50/57/4 60/70/4 61/71/4
f 62/72/1 63/73/1 64/74/1
f 63/73/1 62/72/1 65/75/1
f 66/76/2 67/77/2 68/78/2
f 67/77/2 66/76/2 69/79/2
f 70/80/3 71/81/3 72/82/3
f 71/81/3 70/80/3 73/83/3
f 73/83/3 70/80/3 74/84/3
f 73/83/3 74/84/3 75/85/3
f 75/85/3 74/84/3 63/86/3
f 75/85/3 63/86/3 76/87/3
f 76/87/3 63/86/3 77/88/3
f 77/88/3 63/86/3 65/89/3
f 78/90/3 76/87/3 77/88/3
f 78/90/3 77/88/3 79/91/3
f 80/92/3 76/87/3 78/90/3
f 80/92/3 81/93/3 76/87/3
f 66/94/3 81/93/3 80/92/3
f 66/94/3 71/81/3 81/93/3
f 71/81/3 66/94/3 68/95/3
f 82/96/4 8/97/4 5/98/4
f 83/99/4 8/97/4 82/96/4
f 67/100/4 83/99/4 82/96/4
f 84/101/4 8/97/4 83/99/4
f 83/99/4 67/100/4 84/101/4
f 8/97/4 84/101/4 69/102/4
f 84/101/4 67/100/4 69/102/4
f 72/103/5 85/104/5 70/105/5
f 85/104/5 72/103/5 86/106/5
f 87/107/6 78/108/6 79/109/6
f 78/108/6 87/107/6 88/110/6
f 80/111/7 88/112/7 89/113/7
f 88/112/7 80/111/7 78/114/7
f 90/115/5 60/116/5 91/117/5
f 60/116/5 90/115/5 61/118/5
f 45/119/7 54/120/7 52/121/7
f 54/120/7 45/119/7 43/122/7
f 57/123/6 43/124/6 44/125/6
f 43/124/6 57/123/6 54/126/6
f 57/127/8 42/128/8 56/129/8
f 42/128/8 57/127/8 44/130/8
f 92/131/3 18/132/3 20/133/3
f 93/134/3 18/132/3 92/131/3
f 94/135/3 93/134/3 92/131/3
f 95/136/3 18/132/3 93/134/3
f 94/135/3 95/136/3 93/134/3
f 18/132/3 95/136/3 91/137/3
f 96/138/3 95/136/3 94/135/3
f 95/136/3 96/138/3 91/137/3
f 90/139/3 96/138/3 94/135/3
f 96/138/3 90/139/3 91/137/3
f 94/140/9 92/141/7 90/142/10
f 50/143/7 90/142/10 92/141/7
f 90/142/10 50/143/7 61/144/7
f 50/143/7 92/141/7 24/145/7
f 20/146/11 24/145/7 92/141/7
f 50/143/7 24/145/7 39/147/7
f 39/147/7 24/145/7 33/148/12
f 39/147/7 33/148/12 36/149/13
f 24/145/7 20/146/11 22/150/14
f 22/150/14 20/146/11 17/151/15
f 22/150/14 17/151/15 97/152/16
f 97/152/16 17/151/15 98/153/17
f 98/153/17 17/151/15 99/154/10
f 99/154/10 17/151/15 71/155/7
f 17/151/15 72/156/7 71/155/7
f 100/157/7 72/156/7 17/151/15
f 17/151/15 101/158/18 100/157/7
f 72/156/7 100/157/7 86/159/7
f 50/160/19 25/161/19 27/162/19
f 25/161/19 50/160/19 3/163/19
f 3/163/19 50/160/19 39/164/19
f 3/163/19 39/164/19 49/165/20
f 25/161/19 3/163/19 102/166/21
f 3/163/19 7/167/22 102/166/21
f 7/167/22 3/163/19 2/168/23
f 7/167/22 2/168/23 5/169/24
f 5/169/24 2/168/23 103/170/25
f 5/169/24 103/170/25 99/171/19
f 68/172/19 5/169/24 99/171/19
f 68/172/19 99/171/19 71/173/19
f 68/172/19 82/174/19 5/169/24
f 82/174/19 68/172/19 67/175/19
f 31/176/19 34/177/19 58/178/19
f 34/177/19 31/176/19 30/179/19
f 66/180/26 8/181/26 69/182/26
f 8/181/26 66/180/26 89/183/26
f 89/183/26 66/180/26 80/184/26
f 4/185/27 8/181/26 89/183/26
f 4/185/27 6/186/28 8/181/26
f 1/187/26 6/186/28 4/185/27
f 6/186/28 1/187/26 28/188/26
f 52/189/26 28/188/26 1/187/26
f 52/189/26 1/187/26 45/190/26
f 28/188/26 52/189/26 26/191/26
f 87/192/8 77/193/8 104/194/8
f 77/193/8 87/192/8 79/195/8
f 58/196/8 91/197/8 60/198/8
f 91/197/8 58/196/8 21/199/8
f 21/199/8 58/196/8 34/200/8
f 21/199/8 18/201/29 91/197/8
f 18/201/29 21/199/8 23/202/30
f 18/201/29 23/202/30 19/203/8
f 19/203/8 23/202/30 105/204/31
f 70/205/8 19/203/8 105/204/31
f 70/205/8 105/204/31 74/206/8
f 19/203/8 70/205/8 85/207/8
f 55/208/32 14/209/32 16/210/32
f 14/209/32 55/208/32 59/211/32
f 81/212/33 12/213/33 76/214/33
f 12/213/33 81/212/33 10/215/33
f 10/216/34 73/217/34 11/218/34
f 73/217/34 10/216/34 71/219/34
f 71/219/34 10/216/34 81/220/34
f 64/221/19 74/222/19 105/223/19
f 74/222/19 64/221/19 63/224/19
f 9/225/32 73/226/32 75/227/32
f 73/226/32 9/225/32 11/228/32
f 76/229/35 9/230/35 75/231/35
f 9/230/35 76/229/35 12/232/35
f 104/233/26 65/234/26 62/235/26
f 65/234/26 104/233/26 77/236/26
f 99/237/34 38/238/34 106/239/34
f 38/238/34 99/237/34 39/240/34
f 39/240/34 99/237/34 46/241/34
f 46/241/34 99/237/34 107/242/34
f 46/243/33 108/244/33 41/245/33
f 108/244/33 46/243/33 107/246/33
f 56/247/26 32/248/26 29/249/26
f 32/248/26 56/247/26 42/250/26
f 15/251/33 53/252/33 13/253/33
f 53/252/33 15/251/33 51/254/33
f 41/255/35 109/256/35 40/257/35
f 109/256/35 41/255/35 108/258/35
f 50/259/34 14/260/34 59/261/34
f 14/260/34 50/259/34 15/262/34
f 15/262/34 50/259/34 51/263/34
f 13/264/35 55/265/35 16/266/35
f 55/265/35 13/264/35 53/267/35
f 109/268/32 38/269/32 40/270/32
f 38/269/32 109/268/32 106/271/32
f 4/272/4 103/273/4 2/274/4
f 103/273/4 4/272/4 89/275/4
f 103/273/4 89/275/4 110/276/4
f 110/276/4 99/277/4 103/273/4
f 99/277/4 110/276/4 111/278/4
f 110/276/4 89/275/4 111/278/4
f 99/277/4 111/278/4 107/279/4
f 107/279/4 111/278/4 89/275/4
f 107/279/4 89/275/4 108/280/4
f 108/280/4 89/275/4 88/281/4
f 108/280/4 88/281/4 109/282/4
f 109/282/4 88/281/4 104/283/4
f 104/283/4 88/281/4 87/284/4
f 64/285/4 109/282/4 104/283/4
f 64/285/4 104/283/4 62/286/4
f 105/287/4 109/282/4 64/285/4
f 105/287/4 106/288/4 109/282/4
f 106/288/4 98/289/4 99/277/4
f 112/290/4 98/289/4 106/288/4
f 112/290/4 106/288/4 105/287/4
f 113/291/4 98/289/4 112/290/4
f 105/287/4 113/291/4 112/290/4
f 98/289/4 113/291/4 97/292/4
f 105/287/4 97/292/4 113/291/4
f 23/293/4 97/292/4 105/287/4
f 97/292/4 23/293/4 22/294/4
f 6/295/3 102/296/3 7/297/3
f 6/295/3 114/298/3 102/296/3
f 114/298/3 25/299/3 102/296/3
f 6/295/3 115/300/3 114/298/3
f 115/300/3 25/299/3 114/298/3
f 115/300/3 6/295/3 28/301/3
f 25/299/3 115/300/3 28/301/3
f 19/302/4 101/303/4 17/304/4
f 19/302/4 116/305/4 101/303/4
f 116/305/4 100/306/4 101/303/4
f 19/302/4 117/307/4 116/305/4
f 117/307/4 100/306/4 116/305/4
f 117/307/4 19/302/4 85/308/4
f 117/307/4 118/309/4 100/306/4
f 118/309/4 117/307/4 85/308/4
f 118/309/4 86/310/4 100/306/4
f 86/310/4 118/309/4 85/308/4
f 35/311/36 113/312/37 37/313/38
f 112/314/38 37/313/38 113/312/37
f 95/315/39 116/316/40 117/317/39
f 116/316/40 95/315/39 93/318/40
f 91/319/41 85/320/41 95/321/42
f 117/322/42 95/321/42 85/320/41
f 34/323/43 37/324/38 105/325/43
f 112/326/38 105/325/43 37/324/38
f 119/327/44 120/328/45 121/329/45
f 120/328/45 119/327/44 122/330/44
f 124/331/46 123/332/46 121/333/47
f 120/334/47 121/333/47 123/332/46
f 33/335/48 119/336/49 35/337/36
f 122/338/49 35/339/36 119/340/49
f 113/341/37 35/339/36 122/338/49
f 97/342/50 113/343/37 122/344/49
f 124/345/51 125/346/8 126/347/8
f 123/348/46 124/345/46 125/346/7
f 127/349/52 128/350/53 129/351/53
f 130/352/54 127/349/54 128/350/55
f 93/353/40 131/354/56 116/355/40
f 92/356/57 93/357/58 131/358/59
f 132/359/59 131/354/59 116/355/58
f 101/360/60 132/361/59 116/362/58
f 132/363/56 129/364/53 128/365/53
f 131/366/59 132/363/59 129/364/55
f 127/367/54 130/368/54 126/369/7
f 125/370/7 126/369/7 130/368/54
f 134/371/61 133/372/62 136/373/61
f 135/374/63 134/371/64 133/372/63
f 28/375/65 84/376/66 115/377/66
f 69/378/67 28/375/67 84/376/68
f 138/379/19 135/380/63 137/381/19
f 133/382/63 137/381/19 135/380/63
f 141/383/69 140/384/70 139/385/69
f 142/386/70 139/385/69 140/384/70
f 115/387/66 83/388/71 114/389/72
f 84/390/68 115/387/68 83/388/73
f 47/391/74 89/392/75 45/393/75
f 89/392/75 47/391/74 111/394/74
f 136/395/61 143/396/76 134/397/61
f 144/398/77 136/395/64 143/396/77
f 114/399/72 141/400/78 102/401/79
f 141/402/78 114/403/72 83/404/71
f 141/402/78 83/404/71 139/405/80
f 82/406/81 83/407/73 139/408/69
f 110/409/82 47/410/74 48/411/82
f 111/412/83 110/409/84 47/410/83
f 146/413/85 138/414/19 145/415/85
f 137/416/19 145/415/85 138/414/19
f 146/417/86 142/418/87 145/419/86
f 140/420/70 146/417/85 142/418/70
f 143/421/88 48/422/89 49/423/90
f 48/424/89 143/425/88 144/426/76
f 110/427/91 144/426/92 48/424/84
f 103/428/3 144/429/92 110/430/91
